<svg width="16" height="17" viewBox="0 0 16 17" fill="none" xmlns="http://www.w3.org/2000/svg">
<path d="M15.0783 9.73614L14.7553 9.55157C14.3709 9.33239 14.1412 8.93896 14.1412 8.5C14.1412 8.06104 14.3709 7.66761 14.7553 7.44843L15.0783 7.26386C15.9601 6.75993 16.2616 5.64764 15.7526 4.77579L15.1385 3.72421C14.6306 2.85418 13.5013 2.55546 12.6219 3.05757L12.2989 3.24154C11.9145 3.46132 11.4546 3.46132 11.0707 3.24154C10.6863 3.02175 10.4567 2.62893 10.4567 2.18996V1.82143C10.4567 0.817214 9.6301 0 8.6144 0H7.38622C6.37052 0 5.54395 0.817214 5.54395 1.82143V2.19057C5.54395 2.62954 5.31428 3.02236 4.92987 3.24214C4.54545 3.46132 4.08611 3.46193 3.70169 3.24214L3.37868 3.05757C2.4993 2.55546 1.37 2.85418 0.861531 3.72421L0.247443 4.77579C-0.261636 5.64764 0.0398811 6.76054 0.921712 7.26386L1.24534 7.44843C1.62976 7.66761 1.85942 8.06104 1.85942 8.5C1.85942 8.93896 1.62976 9.33239 1.24534 9.55157L0.922326 9.73614C0.0404951 10.2395 -0.261022 11.3524 0.248057 12.2242L0.862145 13.2758C1.37061 14.1458 2.49992 14.4445 3.37868 13.9424L3.70169 13.7585C4.08611 13.5381 4.54545 13.5393 4.92987 13.7585C5.31428 13.9782 5.54395 14.3711 5.54395 14.81V15.1786C5.54395 16.1828 6.37052 17 7.38622 17H8.6144C9.6301 17 10.4567 16.1828 10.4567 15.1786V14.8094C10.4567 14.3705 10.6863 13.9776 11.0707 13.7579C11.4546 13.5387 11.9145 13.5381 12.2989 13.7579L12.6219 13.9424C13.5013 14.4439 14.6306 14.1452 15.1385 13.2758L15.7526 12.2242C16.2616 11.3524 15.9601 10.2395 15.0783 9.73614ZM8.00031 11.5357C6.30727 11.5357 4.92987 10.1739 4.92987 8.5C4.92987 6.82611 6.30727 5.46429 8.00031 5.46429C9.69335 5.46429 11.0707 6.82611 11.0707 8.5C11.0707 10.1739 9.69335 11.5357 8.00031 11.5357Z" fill="#C6C6C4"/>
</svg>
